<svg xmlns="http://www.w3.org/2000/svg" width="116.889" height="29.707" viewBox="0 0 116.889 29.707"><g id="Groupe_3" data-name="Groupe 3" transform="translate(-241.224 -246.693)"><g id="Groupe_1" data-name="Groupe 1" transform="translate(241.224 247.09)"><path id="Trac&#xE9;_1" data-name="Trac&#xE9; 1" d="M257.772,262.439h7.41l6.186-14.573h-7.41Z" transform="translate(-252.172 -247.866)" fill="#e50035" fill-rule="evenodd"></path><path id="Trac&#xE9;_2" data-name="Trac&#xE9; 2" d="M252.028,298.2h7.41L260.8,295h-7.41Z" transform="translate(-248.372 -279.051)" fill="#e50035" fill-rule="evenodd"></path><path id="Trac&#xE9;_3" data-name="Trac&#xE9; 3" d="M246.834,311.851h7.41l1.053-2.48h-7.41Z" transform="translate(-244.936 -288.557)" fill="#e50035" fill-rule="evenodd"></path><path id="Trac&#xE9;_4" data-name="Trac&#xE9; 4" d="M241.224,324.165h7.41l1.249-2.942h-7.41Z" transform="translate(-241.224 -296.399)" fill="#e50035" fill-rule="evenodd"></path></g><g id="Groupe_2" data-name="Groupe 2" transform="translate(256.69 246.693)"><path id="Trac&#xE9;_5" data-name="Trac&#xE9; 5" d="M286.927,277.086l12.3-28.27h4.352l12.179,28.27h-5.75l-2.635-6.468H295.112l-2.556,6.468Zm9.9-10.781h8.784l-4.352-11.5Z" transform="translate(-286.927 -248.098)" fill="#fff"></path><path id="Trac&#xE9;_6" data-name="Trac&#xE9; 6" d="M401.8,251.165l-3.913,2.875a7.764,7.764,0,0,0-5.949-2.8c-5.79,0-9.7,4.472-9.7,10.1,0,5.83,3.753,10.5,9.7,10.5a7.97,7.97,0,0,0,6.349-3.434l4.152,2.955a12.566,12.566,0,0,1-10.541,5.031c-8.7,0-14.933-5.949-14.933-14.734s5.909-14.973,14.933-14.973A12.461,12.461,0,0,1,401.8,251.165Z" transform="translate(-346.492 -246.693)" fill="#fff"></path><path id="Trac&#xE9;_7" data-name="Trac&#xE9; 7" d="M462.272,248.816H481v4.552H467.3v6.948H480.28v4.552H467.3v7.666h14.414v4.552H462.272Z" transform="translate(-402.936 -248.098)" fill="#fff"></path><path id="Trac&#xE9;_8" data-name="Trac&#xE9; 8" d="M548.152,249.608l-3.674,3.873a5.9,5.9,0,0,0-4.951-2.236c-2.835,0-4.632,1.438-4.632,3.634,0,1.917,1.6,2.955,4.392,3.833,4.512,1.4,9.024,2.835,9.024,8.665s-4.592,9.024-10.142,9.024c-3.993,0-7.267-1.2-9.463-3.833l3.793-3.674a6.617,6.617,0,0,0,5.59,2.955c2.715,0,4.951-1.6,4.951-3.873,0-2.116-1.437-3.234-5.071-4.352-5.071-1.557-8.345-3.274-8.345-8.385s4.272-8.545,10.422-8.545A11.708,11.708,0,0,1,548.152,249.608Z" transform="translate(-446.889 -246.693)" fill="#fff"></path></g></g></svg>